<?xml version="1.0" encoding="utf-8"?>
<!-- Generator: Adobe Illustrator 23.0.2, SVG Export Plug-In . SVG Version: 6.00 Build 0)  -->
<svg version="1.1" id="body" xmlns="http://www.w3.org/2000/svg" xmlns:xlink="http://www.w3.org/1999/xlink" x="0px" y="0px"
	 viewBox="0 0 3500 590.5" style="enable-background:new 0 0 3500 590.5;" xml:space="preserve">
<style type="text/css">
	.st0{fill:#FF6600;}
</style>
<path class="st0" d="M796.1,42.6v14.9c0,10.1-3.7,20.2-10.1,27.6c-4.8,5.8-12.2,15.4-20.7,28.1c-8,11.7-17,26.5-25.5,44.1
	c-0.5,1.1-1.1,2.7-1.6,3.7c-1.1,2.1-2.1,4.2-2.7,6.4c-18,39.3-29.2,80.7-32.4,123.7c-4.2,5.8-8.5,11.1-13.3,16.5
	c-2.1,2.1-4.2,4.8-6.9,6.4c0.5-0.5,0.5-1.1,0.5-1.6c1.6-55.7,14.9-109.3,38.2-159.2c19.1-39.8,40.3-66.9,50.9-79.6
	c3.7-4.2,5.3-10.1,5.3-15.9V42.6c0,0-1.1-1.6-4.2-4.2c-3.2-2.7-8-5.3-13.3-8.5c-1.1-0.5-2.1-1.1-3.7-1.6c-10.1-5.3-15.9-7.4-17.5-8
	c-9.6,0-18.6,1.1-27.1,2.1h-0.5c-6.4,0.5-13.3,1.6-20.2,2.1C675.4,25,660,24,643.5,20.3c-31.3-6.9-62.6,1.6-83.3,9.6
	c-6.9,2.7-14.9,0.5-20.2-5.3c-2.1-1.6-4.2-3.2-6.9-3.7c-1.1-0.5-2.1-0.5-3.2-0.5H506c-8,0-14.9,7.4-14.9,17v65.8
	c5.8-0.5,12.2-1.1,18.6-1.1c1.6,0,6.9,0,25.5,9.6c1.6,1.1,2.7,1.6,4.2,2.1c4.2,2.7,10.1,6.4,14.9,10.1c0.5,0,1.1,0.5,2.1,1.1
	c2.1-1.6,4.2-2.1,6.9-2.7c13.8-2.7,26,1.6,34,4.8h1.1c4.8,1.6,11.7,2.7,20.7,2.1l25.5-1.1l-19.1,16.5
	c-17.5,15.4-30.3,40.3-38.7,73.8c-8,34.5-9.6,69.5-9.6,93.4c0,6.4,4.2,11.7,10.1,11.7h84.9c-8,6.9-17.5,13.3-27.1,18h-57.8
	c-15.4,0-28.1-13.3-28.1-29.7c0-24.4,1.6-61.6,10.6-97.6c6.9-28.1,17-50.9,30.3-67.9c-2.7-0.5-5.3-1.6-8-2.1l-0.5-0.5
	c-6.9-2.1-15.9-5.3-24.9-3.7h-0.5v17.5c0,10.1-3.2,19.6-9.6,27.1c-5.3,5.8-12.7,15.4-21.2,28.1c-8.5,12.7-18,28.7-27.1,47.8
	c-16.5,34.5-27.6,70.6-32.9,108.3c-2.7,0-5.3-0.5-8-1.1c-3.2-0.5-6.4-1.1-9-1.6c5.3-39.3,17-77,34-113
	c15.4-33.4,32.9-57.8,44.6-72.7c2.1-2.7,4.2-5.3,5.8-7.4c3.7-4.2,5.8-9.6,5.8-15.4v-14.9c-0.5-0.5-1.1-1.6-2.7-3.2
	c-0.5,0-1.1-1.1-2.1-1.6c-3.2-2.1-8-5.3-13.3-8c-1.1-0.5-2.1-1.6-3.7-2.1c-9.6-5.3-15.4-7.4-17.5-7.4c-5.8,0-12.2,0-18,0.5
	c-2.7,0.5-5.8,1.1-9,1.1h-0.5c-2.7,0.5-5.3,1.1-8,1.1c-3.7,0.5-8,1.1-12.2,1.1c-15.9,1.1-31.3-0.5-47.8-4.2
	c-30.8-6.4-62.1,1.6-83.3,9.6c-6.9,2.7-14.3,1.1-20.2-4.8c-2.1-2.1-4.2-3.2-6.4-4.2H277c-8.5,0-14.9,7.4-14.9,17v108.3
	c0,4.8,1.6,9.6,4.8,12.7c2.7,2.7,6.4,4.2,10.1,4.2h23.4c8.5,0,14.9-7.4,14.9-17c0-5.3,2.1-10.6,5.3-14.9c3.2-4.8,8-8,13.3-9
	c13.8-2.7,26,2.1,34.5,4.8l0.5,0.5c4.8,1.6,12.2,2.1,20.7,1.6l25.5-1.1l-19.1,17c-17,15.4-30.3,39.8-38.2,73.2
	c-2.1,8-3.7,15.9-4.8,23.9c-1.6-0.5-3.7-1.1-5.3-1.6c-4.2-1.1-8-2.1-12.2-3.2c1.1-8,2.7-15.4,4.8-23.4c6.9-28.1,17-50.9,30.3-67.9
	c-2.7-0.5-5.3-1.1-7.4-2.1h-1.1c-6.9-2.7-15.9-5.8-24.9-4.2c-1.6,0.5-3.7,3.2-3.7,6.4c0,19.1-14.9,35-32.9,35H277
	c-8.5,0-17-3.7-22.8-10.1c-6.4-6.4-10.1-15.4-10.1-24.9v-32.9c-10.1,32.4-15.4,65.8-17,100.3c0,0.5,0,0.5,0,1.1
	c-5.8-1.1-11.7-1.6-17.5-2.1c1.6-52.5,13.3-102.4,34.5-149.7V137c0-19.6,14.9-35,32.9-35c9-12.7,16.5-22.8,21.8-28.7
	c3.7-4.2,5.8-10.1,5.8-15.9V42.6c-0.5,0-1.1-1.6-4.8-4.2c-3.2-2.7-8-5.3-13.3-8.5c-1.1-0.5-2.1-1.1-3.7-1.6
	c-9.6-5.3-15.4-7.4-17.5-8c-9.6,0-18.6,1.1-27.1,2.1h-0.5c-6.4,0.5-12.7,1.6-20.2,2.1c-15.9,0.5-31.3-0.5-47.8-4.2
	c-30.8-6.9-62.1,1.6-83.3,9.6c-6.9,2.7-14.3,0.5-20.2-5.3c-2.1-1.6-4.2-3.2-6.4-3.7c-1.1-0.5-2.1-0.5-3.7-0.5H32.9
	c-8.5,0-14.9,7.4-14.9,17V146c0,4.8,1.6,9,4.8,12.7c2.7,2.7,6.4,4.2,10.1,4.2h23.4c8.5,0,14.9-7.4,14.9-17c0-5.3,2.1-11.1,5.3-15.4
	c3.2-4.2,8-7.4,13.3-8.5c13.8-2.7,26,1.6,34.5,4.8h0.5c4.8,1.6,12.2,2.7,20.7,2.1l25.5-1.1l-19.1,16.5c-17,15.4-30.3,40.3-38.2,73.8
	c-8.5,34.5-10.1,69.5-10.1,93.4c0,4.8,2.7,9,6.4,10.6c-6.4,2.1-12.2,4.8-18,8c-4.2-4.8-6.4-11.7-6.4-18.6c0-24.4,1.6-61.6,10.6-97.6
	c6.9-28.1,17-50.9,30.3-67.9c-2.7-0.5-5.3-1.6-8-2.1l-0.5-0.5c-6.9-2.1-15.9-5.3-24.9-3.7c-1.6,0-3.7,3.2-3.7,6.4
	c0,19.1-14.9,34.5-32.9,34.5H32.9c-9,0-17-3.2-22.8-9.6C3.7,164.1,0,155.6,0,146V37.3C0,18.1,14.9,2.8,32.9,2.8h23.4
	c2.7,0,5.3,0,8,0.5c5.8,1.6,10.6,4.8,14.9,9c0.5,0.5,1.1,0.5,1.1,0.5c23.4-8.5,58.4-17.5,93.4-10.1c15.4,3.2,28.7,4.2,43,3.7
	c6.9-0.5,13.3-1.1,19.1-1.6h0.5c9.6-1.1,19.1-2.1,29.7-2.1c1.6,0,6.9,0,25.5,9.6c1.6,0.5,2.7,1.6,4.2,2.1c4.2,2.1,10.1,5.8,14.9,9.6
	c5.8,4.2,11.7,10.1,11.7,18.6v14.9c0,10.1-3.2,20.2-9.6,27.6c-3.7,3.7-8.5,9.6-13.8,17h1.6c2.7,0,5.8,0.5,8,1.1
	c5.8,1.6,10.6,4.2,14.9,8.5c0.5,0.5,1.1,1.1,1.1,1.1c23.4-9,58.4-18,93.4-10.6c15.4,3.7,28.7,4.8,43,3.7c4.8,0,9-0.5,13.3-1.1V37.3
	c0-19.1,14.3-34.5,32.4-34.5h23.9c2.7,0,5.3,0,8,0.5c5.3,1.6,10.6,4.8,14.9,9c0.5,0.5,1.1,0.5,1.1,0.5c23.4-8.5,57.8-17.5,93.4-10.1
	c15.4,3.2,28.7,4.2,43,3.7c6.9-0.5,13.3-1.1,19.1-1.6h0.5c9-1.1,18.6-2.1,29.7-2.1c1.6,0,6.4,0,24.9,9.6c1.6,0.5,3.2,1.6,4.2,2.1
	c4.2,2.1,10.6,5.8,15.4,9.6C789.7,28.2,796.1,34.1,796.1,42.6z M761.6,156.1c97.1,298.8-118.9,466-351.3,429.3
	C286.1,565.8,131.6,508,17.5,556.8c-18-50.9,2.7-124.2,30.8-159.7c28.1-31.8,58.4-48.8,92.3-55.7c18.6-4.2,38.7-5.3,60-3.7h0.5
	c3.2,0,6.4,0.5,10.1,1.1c37.2,3.2,77.5,13.3,121,23.9c5.3,1.6,11.1,3.2,17,4.8c33.4,8.5,69,17.5,106.1,24.4l8,1.6
	c3.2,0.5,6.4,1.1,9.6,1.6C623.1,417.2,775.4,338.7,761.6,156.1z M295.6,534.5c-53.1-62.6-115.2-78-115.2-78
	c30.2-19.1,75.4-31.3,75.4-31.3c-43-21.8-87-22.3-90.8-22.3c20.7-17.5,41.4-28.7,57.8-35.6c-65.3-9.6-113-0.5-153.9,46.7
	c-19.1,24.4-33.4,69.5-30.8,107.2C118.3,499.5,210.7,516.5,295.6,534.5z M1039,333h-63.4v96.8c0,13.8-3.3,24.3-9.8,31.5
	c-6.5,7.1-14.8,10.7-24.7,10.7c-10.4,0-18.8-3.5-25.2-10.6s-9.6-17.5-9.6-31.1V166.7c0-15.2,3.5-26.1,10.5-32.7
	c7-6.5,18.1-9.8,33.4-9.8h88.9c26.3,0,46.5,2,60.6,6.1c14,3.9,26.1,10.3,36.3,19.4c10.2,9,17.9,20.1,23.2,33.1
	c5.3,13.1,7.9,27.8,7.9,44.1c0,34.8-10.7,61.2-32.2,79.2C1113.4,324,1081.5,333,1039,333z M1022.2,176.3h-46.6v104.5h46.6
	c16.3,0,30-1.7,40.9-5.1c11-3.4,19.3-9,25.1-16.8c5.8-7.8,8.6-18,8.6-30.6c0-15.1-4.4-27.4-13.3-36.8
	C1073.6,181.3,1053.2,176.3,1022.2,176.3z M1318,320h-24.3v109.8c0,14.5-3.2,25.1-9.6,32c-6.4,6.8-14.7,10.3-25,10.3
	c-11,0-19.6-3.6-25.7-10.7s-9.1-17.6-9.1-31.5V166.7c0-14.9,3.3-25.7,10-32.4c6.7-6.7,17.5-10,32.4-10h112.6c15.5,0,28.8,0.7,39.9,2
	c11,1.3,21,4,29.9,8c10.7,4.5,20.2,11,28.5,19.4c8.2,8.4,14.5,18.2,18.8,29.3s6.4,22.9,6.4,35.3c0,25.5-7.2,45.9-21.6,61.1
	s-36.2,26-65.4,32.4c12.3,6.5,24,16.2,35.2,28.9c11.2,12.8,21.2,26.3,30,40.7c8.8,14.4,15.6,27.4,20.5,38.9
	c4.9,11.6,7.3,19.6,7.3,23.9c0,4.5-1.4,9-4.3,13.4s-6.8,7.9-11.8,10.5s-10.7,3.8-17.3,3.8c-7.8,0-14.3-1.8-19.6-5.5
	c-5.3-3.7-9.8-8.3-13.6-13.9c-3.8-5.6-9-13.8-15.5-24.7l-27.8-46.2c-10-16.9-18.9-29.9-26.7-38.7c-7.9-8.9-15.8-14.9-23.9-18.2
	C1340.4,321.6,1330.2,320,1318,320z M1357.6,176.3h-63.9v94h62c16.6,0,30.6-1.4,42-4.3c11.3-2.9,20-7.8,26-14.7c6-6.9,9-16.4,9-28.6
	c0-9.5-2.4-17.8-7.2-25.1c-4.8-7.2-11.5-12.6-20.1-16.2C1397.3,178,1381.4,176.3,1357.6,176.3z M1718.9,118.5
	c35.4,0,65.9,7.2,91.3,21.6c25.4,14.4,44.7,34.8,57.7,61.3c13.1,26.5,19.6,57.6,19.6,93.4c0,26.4-3.6,50.5-10.7,72.1
	c-7.2,21.6-17.9,40.3-32.2,56.2c-14.3,15.9-31.9,28-52.7,36.4c-20.8,8.4-44.7,12.6-71.6,12.6c-26.7,0-50.7-4.3-71.8-12.9
	c-21.1-8.6-38.8-20.8-52.9-36.5c-14.2-15.7-24.8-34.6-32.1-56.7c-7.2-22.1-10.8-45.9-10.8-71.6c0-26.3,3.8-50.4,11.3-72.3
	s18.5-40.6,32.8-56s31.7-27.2,52.2-35.3C1669.4,122.5,1692.8,118.5,1718.9,118.5z M1817.3,294.3c0-25-4-46.7-12.1-65.1
	c-8.1-18.3-19.6-32.2-34.6-41.6c-15-9.4-32.2-14.1-51.7-14.1c-13.8,0-26.6,2.6-38.4,7.8c-11.7,5.2-21.8,12.8-30.3,22.7
	c-8.5,10-15.2,22.7-20.1,38.1c-4.9,15.5-7.3,32.8-7.3,52.1c0,19.4,2.4,37,7.3,52.7s11.8,28.7,20.8,39.1
	c8.9,10.3,19.2,18.1,30.8,23.2c11.6,5.1,24.3,7.7,38.1,7.7c17.7,0,34-4.4,48.9-13.3c14.8-8.9,26.7-22.5,35.4-41
	C1812.9,344.1,1817.3,321.4,1817.3,294.3z M1922.2,399.7l76.5-111.7l-64.4-99.4c-6.1-9.6-10.6-17.9-13.6-24.8
	c-3-6.9-4.5-13.6-4.5-19.9c0-6.5,2.9-12.4,8.7-17.6c5.8-5.2,12.9-7.8,21.3-7.8c9.6,0,17.1,2.8,22.5,8.5c5.4,5.7,12.8,16.2,22.3,31.6
	l51.3,83l54.8-83c4.5-7,8.4-13,11.5-18c3.2-5,6.3-9.1,9.2-12.4c3-3.3,6.3-5.7,9.9-7.3c3.7-1.6,7.9-2.4,12.7-2.4
	c8.7,0,15.8,2.6,21.3,7.8s8.3,11.4,8.3,18.5c0,10.4-6,24.6-18,42.4L2084.8,288l72.5,111.7c6.5,9.8,11.3,17.9,14.2,24.4
	c3,6.5,4.4,12.6,4.4,18.3c0,5.4-1.3,10.4-4,14.9c-2.6,4.5-6.4,8.1-11.2,10.7s-10.3,4-16.3,4c-6.5,0-12.1-1.4-16.6-4.1
	s-8.2-6.1-11-10.1s-8-11.9-15.6-23.6l-60.2-94.7l-63.9,97.5c-5,7.8-8.5,13.2-10.6,16.3c-2.1,3.1-4.6,6.1-7.6,9.1s-6.5,5.3-10.5,7
	s-8.8,2.6-14.2,2.6c-8.4,0-15.4-2.6-20.9-7.7s-8.3-12.6-8.3-22.4C1905.2,430.4,1910.9,416.4,1922.2,399.7z M2273.9,163.9l77.4,229.3
	l77.7-230.9c4-12.1,7.1-20.6,9.1-25.3s5.4-9,10-12.8c4.7-3.8,11-5.7,19.1-5.7c5.9,0,11.4,1.5,16.4,4.4c5.1,3,9,6.9,11.9,11.8
	s4.3,9.8,4.3,14.8c0,3.4-0.5,7.1-1.4,11.1s-2.1,7.9-3.5,11.7s-2.8,7.7-4.2,11.8L2408,407.4c-3,8.6-5.9,16.7-8.9,24.4
	c-3,7.7-6.4,14.5-10.3,20.3c-3.9,5.8-9.1,10.6-15.5,14.3c-6.5,3.7-14.3,5.6-23.7,5.6s-17.2-1.8-23.7-5.5s-11.7-8.5-15.6-14.5
	c-4-6-7.4-12.8-10.4-20.4s-5.9-15.7-8.9-24.3l-81.4-221.6c-1.4-4-2.8-8-4.3-11.9s-2.7-8.1-3.7-12.6s-1.5-8.3-1.5-11.4
	c0-7.9,3.2-15.2,9.6-21.7c6.4-6.5,14.4-9.8,24-9.8c11.8,0,20.2,3.6,25.1,10.8C2263.8,136.5,2268.8,148.1,2273.9,163.9z
	 M2696.1,118.5c35.4,0,65.9,7.2,91.3,21.6c25.4,14.4,44.7,34.8,57.7,61.3c13.1,26.5,19.6,57.6,19.6,93.4c0,26.4-3.6,50.5-10.7,72.1
	c-7.2,21.6-17.9,40.3-32.2,56.2c-14.3,15.9-31.9,28-52.7,36.4s-44.7,12.6-71.6,12.6c-26.7,0-50.7-4.3-71.8-12.9
	s-38.8-20.8-52.9-36.5c-14.2-15.7-24.8-34.6-32.1-56.7c-7.2-22.1-10.8-45.9-10.8-71.6c0-26.3,3.8-50.4,11.3-72.3s18.5-40.6,32.8-56
	s31.7-27.2,52.2-35.3C2646.6,122.5,2670,118.5,2696.1,118.5z M2794.5,294.3c0-25-4-46.7-12.1-65.1c-8.1-18.3-19.6-32.2-34.6-41.6
	c-15-9.4-32.2-14.1-51.7-14.1c-13.8,0-26.6,2.6-38.4,7.8c-11.7,5.2-21.8,12.8-30.3,22.7c-8.5,10-15.2,22.7-20.1,38.1
	c-4.9,15.5-7.3,32.8-7.3,52.1c0,19.4,2.4,37,7.3,52.7c4.9,15.7,11.8,28.7,20.8,39.1c8.9,10.3,19.2,18.1,30.8,23.2s24.3,7.7,38.1,7.7
	c17.7,0,34-4.4,48.9-13.3c14.8-8.9,26.7-22.5,35.4-41C2790.1,344.1,2794.5,321.4,2794.5,294.3z M3183.7,363.6
	c0,20.7-5.3,39.3-16,55.7c-10.7,16.5-26.2,29.4-46.8,38.7c-20.5,9.3-44.9,14-73,14c-33.7,0-61.6-6.4-83.5-19.1
	c-15.5-9.2-28.2-21.4-37.9-36.7c-9.7-15.3-14.6-30.2-14.6-44.7c0-8.4,2.9-15.6,8.7-21.6s13.3-9,22.3-9c7.3,0,13.5,2.3,18.5,7
	c5.1,4.7,9.4,11.6,12.9,20.8c4.4,10.9,9.1,20,14.1,27.3c5.1,7.3,12.2,13.3,21.3,18.1c9.2,4.7,21.2,7.1,36.1,7.1
	c20.5,0,37.2-4.8,50-14.3c12.8-9.6,19.2-21.5,19.2-35.8c0-11.3-3.5-20.6-10.4-27.6c-6.9-7.1-15.9-12.5-26.8-16.2
	c-11-3.7-25.6-7.7-44-11.9c-24.6-5.8-45.1-12.5-61.7-20.2c-16.6-7.7-29.7-18.2-39.4-31.5c-9.7-13.3-14.6-29.8-14.6-49.6
	c0-18.8,5.1-35.5,15.4-50.1c10.3-14.6,25.1-25.8,44.5-33.7c19.4-7.8,42.3-11.8,68.6-11.8c21,0,39.1,2.6,54.5,7.8
	c15.3,5.2,28,12.1,38.1,20.8c10.1,8.6,17.5,17.7,22.2,27.2s7,18.7,7,27.8c0,8.2-2.9,15.7-8.7,22.3s-13.1,9.9-21.8,9.9
	c-7.9,0-14-2-18.1-5.9c-4.1-4-8.6-10.5-13.4-19.5c-6.2-12.9-13.7-23-22.4-30.2s-22.7-10.8-42-10.8c-17.9,0-32.3,3.9-43.3,11.8
	c-11,7.9-16.4,17.3-16.4,28.3c0,6.8,1.9,12.8,5.6,17.7c3.7,5,8.9,9.3,15.4,12.8c6.5,3.6,13.1,6.4,19.8,8.4s17.7,5,33.1,8.9
	c19.3,4.5,36.7,9.5,52.4,14.9c15.6,5.4,28.9,12.1,39.9,19.8c11,7.8,19.5,17.6,25.7,29.5C3180.7,331.7,3183.7,346.3,3183.7,363.6z
	 M3464.6,181.4H3389v248.4c0,14.3-3.2,24.9-9.6,31.8c-6.4,6.9-14.6,10.4-24.7,10.4c-10.3,0-18.6-3.5-25.1-10.5s-9.7-17.6-9.7-31.7
	V181.4h-75.6c-11.8,0-20.6-2.6-26.4-7.8c-5.8-5.2-8.6-12.1-8.6-20.6c0-8.9,3-15.9,9-21c6-5.1,14.7-7.7,26-7.7h220.2
	c12,0,20.9,2.6,26.7,7.9c5.8,5.3,8.7,12.2,8.7,20.8s-3,15.4-8.9,20.6C3485.2,178.8,3476.4,181.4,3464.6,181.4z"/>
</svg>
