<?xml version="1.0" encoding="utf-8"?>
<!-- Generator: Adobe Illustrator 23.0.2, SVG Export Plug-In . SVG Version: 6.00 Build 0)  -->
<svg version="1.1" id="body" xmlns="http://www.w3.org/2000/svg" xmlns:xlink="http://www.w3.org/1999/xlink" x="0px" y="0px"
	 viewBox="0 0 3810 460.4" style="enable-background:new 0 0 3810 460.4;" xml:space="preserve">
<style type="text/css">
	.st0{fill:#FF6600;}
</style>
<path class="st0" d="M614.5,20.5l-0.1-0.1c-4.3-3.4-9.8-6.5-13.4-8.3c-0.1-0.1-0.3-0.1-0.4-0.2c-0.8-0.4-1.9-1.1-3.3-1.6
	c-13.9-7.1-19.3-8.1-23.1-8.1c-8.5,0-15.9,0.8-23.3,1.6l-0.7,0c-4.3,0.4-8.9,0.8-14.2,1.2c-10.3,0.4-19.6-0.4-30.2-2.6
	c-21.5-4.5-45.5-2.4-71.4,6.2c-3.4-2.5-7.3-4.5-11.1-5.6l-0.9-0.2c-3-0.6-5.7-0.6-8-0.6h-18.2c-19.1,0-34.7,16.3-34.7,36.3v42.2
	h-0.1l-0.7,0c-10.1,0.8-19.2-0.1-29.7-2.6l-0.3-0.1c-26.4-5.6-52.5-0.1-71.2,6.4c-1.3-0.9-2.6-1.8-4-2.5c0,0,0,0,0,0l0.5-0.6
	c6.3-7.3,9.7-17.1,9.7-27.5V42.5c0-8.4-4.3-15.9-12.9-22.2c-4.1-3.1-9-6.3-12.9-8.2l-0.6-0.3l-0.2-0.1c0,0,0,0-0.1,0
	c-0.6-0.3-1.5-0.9-2.7-1.4c-14-7.2-19.8-8.1-23.5-8.1c-8.4,0-16,0.8-23.2,1.6l-0.8,0c-4.3,0.4-8.9,0.8-14.2,1.2
	c-10.3,0.4-19.6-0.4-30.1-2.6c-21.4-4.5-45.4-2.5-71.4,6.2C69.5,5.9,65.7,4,61.6,2.9l-0.7-0.2c-3-0.6-5.7-0.6-8-0.6H35.1
	C15.7,2.1,0,18.4,0,38.4v83c0,9.6,3.6,18.5,10.3,25.8c6.2,6.8,15,10.5,24.8,10.5h17.8c17.7,0,32.4-13.6,34.8-31.2
	c0.9,0.1,1.9,0.3,2.8,0.6c-7.1,12.1-12.8,26.8-16.9,43.7c-5.6,22.3-8.4,48.2-8.4,76.9c0,7.1,2.2,13.9,6,19.1
	c11.9-7,24.7-12,38.3-15.1l-10.5-4.5c0-25.5,2.5-48.5,7.4-68.3c5.4-22.9,14.4-40.5,26-51.1l36.3-31.2l-48.2,2l-0.2,0
	c-5.3,0.3-9.7-0.4-12-1.1l-1.5-0.5h-0.2c-6.6-2.4-17.4-5.9-30.1-3.5c-6.3,1.3-12.2,5-16.2,10.3c-3.8,5.1-6,11.7-6,17.7
	c0,1.7-0.7,2.9-1.3,2.9H35.1c-0.1,0-0.3,0-0.4-0.2c-0.6-0.9-0.9-1.7-0.9-2.8v-83c0-1.7,0.7-2.9,1.3-2.9h17.8
	c0.3,0.2,0.8,0.5,1.2,0.9c7.3,7,16.8,9.1,25.4,5.8c22-8.3,41.5-10.6,57.8-6.9c12.6,2.8,25,3.9,39,3.5l0.4,0c3.4-0.2,6.4-0.6,9.3-1
	c2-0.3,3.9-0.5,5.8-0.6h0.6L193,37c6.2-0.8,11.9-1.4,17.9-1.5c1.5,0.5,4.8,1.9,10,4.8l0.8,0.5l0.9,0.3c0.4,0.1,0.7,0.3,1.2,0.5
	c0.7,0.4,1.3,0.8,1.9,1.2c2.7,1.6,5.2,3.1,6.6,4.2l0.1,6.9c0,2-0.7,4.1-1.9,5.5c-3.4,3.8-7.8,9.4-14.6,18.9
	c-16.8,2.8-29.6,18-29.6,36.3v16.9c-16.2,36.8-25.1,75.8-26.3,115.9c1.3,0.1,2.6,0.2,3.9,0.2c3.4,0,6.5,0.5,9.2,0.9l0.5,0.1
	c6.5,0.6,13.1,1.4,19.8,2.4v-2.2c0.4-9.2,1.2-18.2,2.3-26.9c0.4,0.4,0.7,0.8,1.1,1.2c6.4,6.9,15.3,10.8,24.6,10.8h17.8
	c17.7,0,32.4-13.8,34.8-31.6c0.9,0.2,1.9,0.4,2.8,0.6c-7.1,12.1-12.7,26.7-16.9,43.6c-1.7,6.4-2.9,12.1-3.7,17.8
	c2.7,0.7,5.5,1.3,8.2,2l4.3,1.1l0.5,0.1c3.9,1.2,8.3,2.4,12.3,3.5c2.5,0.6,5,1.3,7.5,1.9l0.1-1.1c0.7-5.6,1.9-11.3,3.4-17l0.1-0.3
	c5.4-22.6,14.4-40.2,26.1-50.7l35.5-31.6l-47.5,2l-0.2,0c-4.5,0.3-7.9,0.1-10.1-0.3l-0.2-0.2l-2.3-0.7c-0.6-0.2-1.3-0.4-2-0.6
	c-6.9-2.2-17.2-5.6-29.3-3.3c-6.6,1.3-12.4,5.2-16.3,10.9c-3.8,5.1-5.9,11.2-5.9,17.1c0,1.7-0.7,3-1.3,3h-17.8
	c-0.1,0-0.4-0.1-0.6-0.3c-0.2-0.2-0.7-1.2-0.7-2.6v-82.6c0-1.7,0.7-3,1.3-3h18.1c0.1,0.1,0.3,0.2,0.4,0.3c7.2,7.2,16.9,9.4,26,5.9
	c14.8-5.5,36.8-11.2,57.9-6.9c14,3.2,26.4,4.3,38.9,3.5c3.5,0,6.7-0.4,9.8-0.8c2.3-0.1,4.4-0.4,6.3-0.8c2.9-0.1,5.6-0.5,7.7-0.9
	c3.6-0.3,7.7-0.3,11.6-0.3c0.9,0.3,3.7,1.3,9.3,4.4l0.8,0.5l0.3,0.1c0.5,0.3,1.2,0.8,2.1,1.3c3.1,1.5,6.1,3.5,8.2,4.9v7.2
	c0,1.9-0.7,3.7-2,5.2l-0.5,0.6c-1.1,1.5-2.7,3.5-4.2,5.4l-0.1,0.1c-14.1,17.9-25.9,37.2-35.2,57.4C363,227.4,354,257.2,349.9,287
	c3.7,0.7,7.3,1.4,11,2.1l6,1.2l6.8,1.1c2.9,0.4,5.9,0.8,8.8,1.1l0-0.2c3.8-27.2,12-54,24.2-79.7c5.7-12.2,12.3-23.7,19.9-35.1
	c3.5-5.3,7.1-10.3,10.3-14.3c-0.7,2.5-1.4,5-2,7.6c-5.6,22.3-8.4,48.2-8.4,76.9c0,18,14.1,32.7,31.5,32.7H483
	c20.9-8.4,39-20.3,53-35.5c9.6-10.4,17.3-22,23-34.8c2.5-15.1,6.4-30.2,11.6-45c2.8-7.9,5.9-15.7,9.5-23.4l0.4-0.9l0.2-0.9
	c0.1-0.6,0.8-1.8,1.3-2.8c0.4-0.8,0.7-1.5,0.9-2.2c0.1-0.2,0.2-0.5,0.3-0.7l0.1-0.1c1.1-2.3,2.2-4.5,3.4-6.8
	c4.6-8.9,9.7-17.4,15.3-25.6l0.1-0.1c6.2-9.2,11.6-16.3,15.1-20.6c6.4-7.5,10-17.5,10-27.5V42.5C627.2,30.6,618.3,23.5,614.5,20.5z
	 M451.9,127.2V127c0,0,0,0,0.1,0C452,127.1,452,127.1,451.9,127.2z M593.4,53.8c0,2.4-0.6,4.4-1.6,5.5l-0.2,0.2
	c-15.7,18.9-29.3,40-40.2,62.9c-18.3,39-28.4,80.1-30,122.2l-1.9,1.9h-59.1c0.1-25.1,2.4-47.9,7-67.8c6.1-23.8,14.9-41,26.4-51.1
	l36.3-31.3l-48.2,2l-0.2,0c-6.4,0.4-10.3-0.5-12-1.1l-1.5-0.5h-0.5c-7.8-3-18-5.7-29.8-3.5c-0.7,0.1-1.5,0.3-2.3,0.5
	c-2.9-2-5.9-4-8.6-5.7l-1-0.6l-1.1-0.4c-0.3-0.1-0.4-0.1-0.9-0.5l-0.5-0.3l-0.5-0.3c-14.4-7.4-20.2-8.4-24-8.4c-1.4,0-2.8,0-4.2,0.1
	V38.4c0-2,1.1-2.9,1.3-2.9h17.6l0.8,0.1c0.2,0.1,0.5,0.4,0.9,0.6c6.9,6.9,16.8,9.3,25.6,5.9c21.5-8.3,41-10.6,57.8-6.9
	c12.6,2.8,25,3.9,39,3.5l0.4,0c3-0.2,5.9-0.6,8.7-0.9c2.2-0.3,4.3-0.5,6.3-0.7h0.6l0.6-0.1c6.2-0.8,11.8-1.4,17.7-1.5
	c1.8,0.7,5.3,2.2,10.4,4.9l0.7,0.4l0.8,0.3c0.4,0.1,0.7,0.3,1.2,0.5c0.6,0.4,1.3,0.8,1.9,1.1c2.5,1.5,4.8,2.9,6.2,4V53.8z
	 M590.9,129.1c10.5,139.3-105.7,199.2-220.2,182.2c-2.4-0.4-4.9-0.8-7.3-1.2l-6.1-1.2c-28.3-5.3-55.5-12.1-81-18.6
	c-4.4-1.2-8.9-2.4-12.9-3.6c-33.2-8.1-64-15.8-92.3-18.2c-2.8-0.4-5.3-0.8-7.7-0.8H163c-16.2-1.2-31.6-0.4-45.8,2.8
	c-25.9,5.3-49,18.2-70.4,42.5c-21.5,27.1-37.2,83-23.5,121.9c87-37.2,204.8,6.9,299.5,21.9C500.2,484.5,665,357,590.9,129.1z
	 M39.1,407.6c-2-28.7,8.9-63.1,23.5-81.8c31.2-36,67.6-42.9,117.4-35.6c-12.6,5.3-28.3,13.8-44.1,27.1c2.8,0,36.4,0.4,69.2,17
	c0,0-34.4,9.3-57.5,23.9c0,0,47.4,11.7,87.8,59.5C170.7,404,100.3,391,39.1,407.6z M3799.6,41.8c-6.9-6.3-17.5-9.4-31.7-9.4h-261.2
	c-13.5,0-23.8,3-30.9,9.1s-10.6,14.4-10.6,24.9c0,10.2,3.4,18.3,10.2,24.5c6.8,6.2,17.2,9.3,31.3,9.3h89.7v294.7
	c0,16.8,3.8,29.3,11.5,37.6c7.6,8.3,17.6,12.4,29.8,12.4c12,0,21.8-4.1,29.3-12.3c7.6-8.2,11.3-20.8,11.3-37.8V100.2h89.7
	c14,0,24.5-3.1,31.5-9.3c7-6.2,10.5-14.3,10.5-24.5S3806.5,48,3799.6,41.8z M3423.8,264.4c-7.3-14.1-17.4-25.8-30.4-35
	c-13-9.2-28.8-17.1-47.3-23.5c-18.5-6.5-39.3-12.4-62.1-17.7c-18.3-4.6-31.4-8.1-39.3-10.5c-7.9-2.4-15.8-5.7-23.5-10
	c-7.8-4.2-13.8-9.3-18.3-15.2c-4.4-5.9-6.6-12.9-6.6-21c0-13.1,6.5-24.3,19.5-33.6c13-9.3,30.1-14,51.3-14
	c22.9,0,39.5,4.3,49.8,12.9c10.3,8.6,19.2,20.5,26.6,35.8c5.7,10.7,11,18.4,15.9,23.1c4.9,4.7,12,7.1,21.4,7.1
	c10.3,0,19-3.9,25.9-11.8c6.9-7.8,10.4-16.6,10.4-26.4c0-10.7-2.8-21.7-8.3-32.9c-5.5-11.3-14.3-22-26.3-32.2
	c-12-10.2-27.1-18.5-45.3-24.6c-18.2-6.2-39.7-9.3-64.6-9.3c-31.2,0-58.3,4.7-81.4,14c-23.1,9.3-40.7,22.6-52.9,40
	c-12.2,17.3-18.3,37.2-18.3,59.5c0,23.4,5.8,43,17.3,58.8c11.5,15.8,27.1,28.2,46.8,37.4c19.6,9.1,44,17.1,73.2,23.9
	c21.8,5,39.1,9.7,52.2,14.1c13,4.4,23.6,10.8,31.8,19.2c8.2,8.4,12.3,19.3,12.3,32.8c0,17-7.6,31.1-22.8,42.5
	c-15.2,11.4-35,17-59.4,17c-17.7,0-32-2.8-42.9-8.4c-10.9-5.6-19.3-12.8-25.3-21.4c-6-8.7-11.6-19.5-16.8-32.4
	c-4.2-10.9-9.4-19.1-15.3-24.6c-6-5.5-13.3-8.3-22-8.3c-10.7,0-19.5,3.6-26.4,10.7c-6.9,7.1-10.4,15.6-10.4,25.6
	c0,17.2,5.8,34.8,17.3,53c11.5,18.2,26.5,32.7,45,43.6c26,15.1,59,22.7,99.1,22.7c33.4,0,62.3-5.5,86.6-16.6
	c24.3-11.1,42.8-26.4,55.5-45.9c12.6-19.6,19-41.6,19-66.1C3434.8,295.8,3431.1,278.5,3423.8,264.4z M3033,123.8
	c-15.5-31.5-38.3-55.7-68.5-72.8c-30.2-17.1-66.3-25.6-108.3-25.6c-31,0-58.7,4.8-83,14.5c-24.4,9.7-45,23.7-62,41.9
	c-17,18.3-29.9,40.4-38.9,66.4c-9,26-13.4,54.6-13.4,85.8c0,30.4,4.3,58.8,12.9,85c8.6,26.2,21.3,48.6,38,67.2
	c16.8,18.6,37.7,33.1,62.8,43.3c25.1,10.2,53.5,15.4,85.2,15.4c31.9,0,60.2-5,85-14.9c24.7-10,45.6-24.4,62.5-43.2
	c17-18.8,29.7-41,38.2-66.7c8.5-25.6,12.7-54.1,12.7-85.5C3056.2,192.2,3048.5,155.3,3033,123.8z M2957.3,315.2
	c-10.4,22-24.4,38.2-42.1,48.7c-17.6,10.5-36.9,15.8-58,15.8c-16.4,0-31.5-3-45.2-9.1c-13.8-6.1-25.9-15.3-36.5-27.5
	c-10.6-12.3-18.8-27.7-24.6-46.4c-5.8-18.6-8.7-39.5-8.7-62.5c0-22.9,2.9-43.5,8.7-61.9c5.8-18.4,13.7-33.4,23.8-45.2
	c10.1-11.8,22-20.8,36-27c13.9-6.2,29.1-9.3,45.5-9.3c23.1,0,43.5,5.6,61.3,16.7c17.8,11.2,31.5,27.6,41.1,49.4
	c9.6,21.8,14.4,47.5,14.4,77.2C2972.9,266.2,2967.7,293.2,2957.3,315.2z M2618.3,44.7c-3.4-5.8-8.1-10.5-14.1-14
	c-6-3.5-12.5-5.3-19.5-5.3c-9.6,0-17.1,2.3-22.7,6.8c-5.5,4.5-9.5,9.6-11.9,15.2c-2.4,5.6-6,15.6-10.8,30l-92.1,274l-91.9-272
	c-6.1-18.8-12-32.5-17.9-41.1c-5.8-8.6-15.7-12.9-29.8-12.9c-11.4,0-20.9,3.9-28.5,11.6c-7.6,7.8-11.4,16.3-11.4,25.7
	c0,3.7,0.6,8.2,1.8,13.6c1.2,5.4,2.7,10.3,4.4,14.9c1.8,4.6,3.5,9.3,5.1,14.1l96.6,262.9c3.5,10.1,7,19.7,10.5,28.8
	c3.5,9.1,7.6,17.1,12.3,24.2c4.7,7.1,10.9,12.8,18.5,17.2c7.6,4.3,17,6.5,28.1,6.5c11.1,0,20.4-2.2,28.1-6.6
	c7.7-4.4,13.8-10.1,18.4-17c4.6-6.9,8.7-14.9,12.2-24.1c3.5-9.1,7-18.8,10.5-28.9l98.2-265.1c1.7-4.8,3.3-9.4,5-14
	c1.7-4.5,3-9.1,4.1-13.8c1.1-4.7,1.7-9.1,1.7-13.1C2623.4,56.3,2621.7,50.5,2618.3,44.7z M2233.8,388.1c-3.5-7.7-9.1-17.3-16.9-28.9
	l-86.1-132.6l80-119.5c14.2-21.2,21.3-38,21.3-50.4c0-8.5-3.3-15.8-9.8-22c-6.5-6.2-15-9.3-25.3-9.3c-5.7,0-10.8,1-15.1,2.9
	c-4.3,1.9-8.3,4.8-11.8,8.7c-3.5,3.9-7.1,8.8-10.9,14.7c-3.8,5.9-8.4,13-13.7,21.3l-65,98.5L2019.6,73
	c-11.3-18.3-20.1-30.8-26.4-37.5c-6.4-6.7-15.3-10.1-26.7-10.1c-10,0-18.4,3.1-25.3,9.3c-6.9,6.2-10.4,13.1-10.4,20.9
	c0,7.6,1.8,15.5,5.4,23.7c3.6,8.2,9,18,16.2,29.5l76.4,117.9L1938,359.2c-13.5,19.8-20.2,36.4-20.2,50.1c0,11.6,3.3,20.5,9.8,26.6
	c6.5,6.1,14.8,9.1,24.8,9.1c6.4,0,12.1-1,16.9-3.1c4.8-2,8.9-4.8,12.4-8.3c3.5-3.5,6.5-7.1,9-10.8c2.5-3.7,6.7-10.1,12.6-19.4
	l75.8-115.7l71.4,112.3c9,13.8,15.2,23.2,18.5,27.9c3.3,4.8,7.7,8.8,13,12c5.4,3.2,11.9,4.8,19.6,4.8c7.2,0,13.7-1.6,19.4-4.7
	c5.7-3.1,10.1-7.4,13.3-12.7c3.1-5.3,4.7-11.3,4.7-17.7C2239,403,2237.3,395.8,2233.8,388.1z M1873.5,123.8
	C1858,92.4,1835.1,68.1,1805,51c-30.2-17.1-66.3-25.6-108.3-25.6c-31,0-58.7,4.8-83,14.5s-45,23.7-62,41.9
	c-17,18.3-29.9,40.4-38.9,66.4c-9,26-13.4,54.6-13.4,85.8c0,30.4,4.3,58.8,12.9,85c8.6,26.2,21.3,48.6,38,67.2
	c16.8,18.6,37.7,33.1,62.8,43.3c25.1,10.2,53.5,15.4,85.2,15.4c31.9,0,60.2-5,85-14.9c24.7-10,45.6-24.4,62.5-43.2
	c17-18.8,29.7-41,38.2-66.7c8.5-25.6,12.7-54.1,12.7-85.5C1896.7,192.2,1889,155.3,1873.5,123.8z M1797.8,315.2
	c-10.4,22-24.4,38.2-42.1,48.7c-17.6,10.5-36.9,15.8-58,15.8c-16.4,0-31.5-3-45.3-9.1c-13.7-6.1-25.9-15.3-36.5-27.5
	c-10.6-12.3-18.8-27.7-24.6-46.4c-5.8-18.6-8.7-39.5-8.7-62.5c0-22.9,2.9-43.5,8.7-61.9c5.8-18.4,13.7-33.4,23.8-45.2
	c10.1-11.8,22.1-20.8,36-27c13.9-6.2,29.1-9.3,45.5-9.3c23.1,0,43.5,5.6,61.3,16.7c17.8,11.2,31.5,27.6,41.1,49.4
	c9.6,21.8,14.4,47.5,14.4,77.2C1813.4,266.2,1808.2,293.2,1797.8,315.2z M1438.9,383.7c-5.8-13.7-13.9-29.1-24.3-46.2
	c-10.4-17.1-22.3-33.2-35.6-48.3c-13.3-15.1-27.2-26.6-41.8-34.3c34.7-7.6,60.6-20.4,77.6-38.5c17.1-18.1,25.6-42.2,25.6-72.5
	c0-14.8-2.5-28.7-7.6-41.9c-5.1-13.2-12.5-24.8-22.3-34.7c-9.8-10-21-17.6-33.8-23c-10.5-4.8-22.3-8-35.4-9.6
	c-13.1-1.6-28.9-2.4-47.3-2.4h-133.7c-17.7,0-30.5,4-38.5,11.9C1114,52.2,1110,65,1110,82.7v312.1c0,16.4,3.6,28.9,10.8,37.4
	c7.2,8.5,17.3,12.7,30.4,12.7c12.2,0,22-4.1,29.6-12.2c7.6-8.1,11.4-20.8,11.4-37.9V264.5h28.8c14.6,0,26.6,1.9,36.3,5.8
	c9.6,3.9,19,11.1,28.4,21.6c9.3,10.5,19.9,25.8,31.7,45.9l32.9,54.8c7.8,12.9,13.9,22.7,18.4,29.3c4.5,6.6,9.9,12.1,16.2,16.5
	c6.3,4.3,14,6.5,23.2,6.5c7.8,0,14.6-1.5,20.5-4.6c5.9-3,10.6-7.2,14-12.4c3.4-5.3,5.1-10.6,5.1-15.9
	C1447.6,406.9,1444.7,397.4,1438.9,383.7z M1315.6,200.5c-13.5,3.4-30.1,5.1-49.8,5.1h-73.6V94.1h75.8c28.2,0,47.1,2,56.7,6.1
	c10.1,4.2,18.1,10.7,23.8,19.2c5.7,8.6,8.6,18.5,8.6,29.8c0,14.4-3.6,25.7-10.7,33.9C1339.3,191.3,1329,197.1,1315.6,200.5z
	 M1032.5,101.8c-6.3-15.5-15.5-28.6-27.5-39.3c-12.1-10.7-26.4-18.4-43-23c-16.8-4.8-40.8-7.2-72-7.2H784.5
	c-18.1,0-31.3,3.9-39.6,11.6c-8.3,7.8-12.4,20.7-12.4,38.7v312.7c0,16.2,3.8,28.5,11.3,36.9c7.6,8.4,17.5,12.6,29.9,12.6
	c11.8,0,21.6-4.3,29.3-12.7s11.6-20.9,11.6-37.4V280H890c50.4,0,88.3-10.7,113.7-32c25.5-21.3,38.2-52.6,38.2-94
	C1041.9,134.8,1038.8,117.3,1032.5,101.8z M948.4,192c-6.8,9.2-16.7,15.9-29.8,19.9c-13,4.1-29.2,6.1-48.6,6.1h-55.3v-124h55.3
	c36.7,0,61,6,72.8,18c10.5,11.3,15.8,25.8,15.8,43.7C958.6,170.7,955.2,182.8,948.4,192z"/>
</svg>
